PathFileType	4	(X/Y/Z)	/home/abdul/Desktop/myosuite/custom_workspace/IK/output/S3_12_2.trc
DataRate	CameraRate	NumFrames	NumMarkers	Units	OrigDataRate	OrigDataStartFrame	OrigNumFrames
200.0	200.0	44	3	mm	200.0	717	955
Frame#	Time	V_Shoulder			V_Elbow			V_Wrist		
		X1	Y1	Z1	X2	Y2	Z2	X3	Y3	Z3

717	3.58	-127.5523408906882	654.6587973022624	309.7974998264401	-319.44366082225815	467.28422152379017	63.09802933397107	-127.16226483897326	253.2847364127573	49.31894384915634
718	3.585	-127.54316488265624	654.6497681352594	309.79018750256984	-319.39830052593703	467.2866552007115	63.04826770499973	-127.14651230139617	253.22331210871297	49.02185336773702
719	3.59	-127.53456022404025	654.640657723629	309.7824189531929	-319.3527075456384	467.2885816646075	62.99815191906931	-127.13019046852051	253.1610224769684	48.727621961824426
720	3.595	-127.52654108367373	654.6314641414357	309.77419829623346	-319.30693743361	467.2900050826995	62.947723380346865	-127.11330069468744	253.0980002023838	48.436603748664666
721	3.6	-127.5191199111523	654.6221863807164	309.76553077316663	-319.2610481799908	467.29093154068886	62.89702580279852	-127.09584942385254	253.03438190858213	48.14915480949797
722	3.605	-127.51230742024961	654.6128243741632	309.7564226889501	-319.21510015905795	467.29136925860087	62.846104934767396	-127.07784863409609	252.97030796013104	47.86563195540106
723	3.61	-127.50611257588078	654.6033790174856	309.7468813506136	-319.1691560721267	467.291328805178	62.79500828110531	-127.05931628757781	252.90592225232012	47.58639153557406
724	3.615	-127.50054258466538	654.5938521914195	309.73691500484114	-319.1232808871779	467.2908233095528	62.74378482442868	-127.04027678457807	252.8413719878514	47.311788293848615
725	3.62	-127.49560288913271	654.5842467833404	309.7265327748839	-319.07754177528557	467.2898686688981	62.69248474708396	-127.02076142020414	252.77680743974292	47.042174278774645
726	3.625	-127.49129716560522	654.5745667084306	309.7157445971361	-319.0320080439109	467.2884837507314	62.641159155413746	-127.0008088422814	252.71238169973788	46.7778978121938
727	3.63	-127.48762732578666	654.5648169303398	309.70456115771066	-318.9867510671227	467.28669058853234	62.58985980791172	-126.98046550889418	252.64825041151087	46.519302520729006
728	3.635	-127.48459352207317	654.5550034812696	309.69299382934224	-318.941844212803	467.28451456932106	62.53863884884177	-126.95978614399098	252.58457148797373	46.266726434116336
729	3.64	-127.48219415659624	654.5451334814046	309.6810546089427	-318.8973627668871	467.28198461184473	62.48754854887501	-126.93883418942423	252.5215048120014	46.020501153780586
730	3.645	-127.48042589399824	654.5352151576002	309.66875605612404	-318.8533838546874	467.2791333340244	62.436641054266474	-126.9176822517538	252.45921191992898	45.78095109451316
731	3.65	-127.47928367793048	654.5252578612308	309.6561112329968	-318.80998635934316	467.27599720832876	62.38596814605273	-126.89641254210935	252.3978556672107	45.548392801553774
732	3.655	-127.47876075125593	654.5152720850915	309.64313364553794	-318.7672508374352	467.2726167037636	62.33558101070048	-126.87511730737775	252.33759987568362	45.32313434480986
733	3.66	-127.47884867992819	654.5052694792372	309.6298371868127	-318.725259431805	467.26903641319524	62.28553002357633	-126.85389925095784	252.27860896194062	45.1054747913736
734	3.665	-127.47953738050917	654.4952628656342	309.6162360823193	-318.6840957816099	467.26530516476646	62.235864546538906	-126.83287194130752	252.22104754639338	44.89570375691935
735	3.67	-127.48081515127849	654.485266251494	309.60234483770734	-318.64384492964973	467.2614761162102	62.186632740875574	-126.81216020649674	252.16508004269002	44.69410103598834
736	3.675	-127.48266870687767	654.4752948411443	309.58817818910916	-318.6045932269966	467.2576068309239	62.13788139671945	-126.791900512974	252.11087022725127	44.50093631059647
737	3.68	-127.48508321642278	654.465365046296	309.57375105629745	-318.5664282349618	467.2537593347315	62.08965577998684	-126.77224132675417	252.05858078879902	44.31646893603847
738	3.685	-127.48804234501017	654.4554944945444	309.55907849886944	-318.52943862443453	467.25000015233275	62.04199949777221	-126.75334345524239	252.00837285787173	44.14094780221116
739	3.69	-127.4915282985301	654.4457020359548	309.54417567563297	-318.4937140726298	467.24640032252455	61.99495438302705	-126.7353803679207	251.9604055164558	43.974611268243876
740	3.695	-127.49552187169456	654.4360077475612	309.52905780734926	-318.45934515728663	467.24303539136463	61.94856039923184	-126.71853849414305	251.91483528800438	43.81768716770807
741	3.7	-127.50000249917628	654.4264329356148	309.5137401429643	-318.42642324836277	467.23998538254773	61.902855565646945	-126.70301749630795	251.87181560827258	43.6703928811846
742	3.705	-127.50494830974729	654.4170001354108	309.4982379294382	-318.3950403972782	467.2373347443694	61.85787590359955	-126.68903051670846	251.83149627756404	43.53293547249831
743	3.71	-127.51033618329772	654.4077331085244	309.48256638525464	-318.36528922376766	467.235172272763	61.81365540413003	-126.67680439639548	251.79402289515704	43.40551188448893
744	3.715	-127.51614181060627	654.3986568372817	309.46674067767384	-318.3372628004094	467.233591010016	61.77022601718435	-126.66657986443164	251.75953627686636	43.28830918977692
745	3.72	-127.52233975572754	654.3897975162994	309.45077590375956	-318.31105453490864	467.2326881188929	61.72761766239803	-126.65861169596059	251.72817185688746	43.18150489160553
746	3.725	-127.5289035208524	654.3811825409233	309.4346870751938	-318.2867580502244	467.23256473202355	61.68585826137554	-126.65316883756984	251.70005907527076	43.085267269498175
747	3.73	-127.53580561349281	654.3728404924042	309.4184891068602	-318.26446706263926	467.2333257765499	61.64497379122433	-126.65053449848344	251.67532075257947	42.99975576416481
748	3.735	-127.5430176158344	654.3648011196502	309.40219680915817	-318.24427525788576	467.23507977416045	61.604988358959275	-126.6510062061858	251.65407245349445	42.92512139582507
749	3.74	-127.55051025609448	654.3570953174084	309.38582488398	-318.2262761654563	467.2379386167844	61.56592429624935	-126.65489582514721	251.63642184134324	42.86150720989001
750	3.745	-127.55825348171898	654.3497551007304	309.36938792426236	-318.21056303123544	467.2420173183601	61.52780227383609	-126.6625295373978	251.62246802574631	42.80904874376076
751	3.75	-127.56621653424459	654.3428135755897	309.35290041699704	-318.19722868861254	467.24743374323714	61.490641434814044	-126.6742477837772	251.61230090578727	42.76787450836194
752	3.755	-127.57436802565009	654.3363049055298	309.33637674956407	-318.1863654282424	467.25430831191625	61.454459545826836	-126.69040516477433	251.60600051132678	42.738106477931254
753	3.76	-127.5826760160157	654.3302642742319	309.3198312192264	-318.17806486664125	467.2627636849802	61.419273165100314	-126.7113702999649	251.60363634528937	42.719860581536054
754	3.765	-127.59110809230644	654.3247278439108	309.30327804560517	-318.1724178138177	467.2729244262075	61.385097826107064	-126.73752564515155	251.60526672995314	42.71324718978199
755	3.77	-127.59963144809247	654.3197327094539	309.286731385932	-318.1695141401551	467.2849166460067	61.351948235535815	-126.76926726641719	251.6109381604682	42.71837159022018
756	3.775	-127.60821296401768	654.3153168482472	309.2702053528576	-318.1694426427748	467.29886762644696	61.319838484124716	-126.8070045704115	251.62068466901084	42.73533444504642
757	3.78	-127.6168192888257	654.3115190656385	309.2537140345757	-318.1722909116243	467.31490542929424	61.28878226881107	-126.85115999030725	251.63452720315252	42.76423222482014
758	3.785	-127.6254169207524	654.3083789360154	309.23727151700615	-318.1781451955479	467.3331584885947	61.2587931245516	-126.90216862698551	251.6524730221763	42.8051576121104
759	3.79	-127.63397228909245	654.3059367394907	309.2208919077644	-318.187090268609	467.35375518946915	61.22988466407846	-126.96047784513597	251.67451511521068	42.85819986920227
760	3.795	-127.64245183574917	654.3042333942141	309.20458936163055	-318.199209296944	467.3768234349013	61.20207082377651	-127.02654682409357	251.70063164516853	42.92344516426699
